<?xml version="1.0" encoding="UTF-8"?>
<!DOCTYPE svg PUBLIC "-//W3C//DTD SVG 1.1//EN" "http://www.w3.org/Graphics/SVG/1.1/DTD/svg11.dtd">
<svg xmlns="http://www.w3.org/2000/svg" version="1.1" width="200px" height="110px" style="shape-rendering:geometricPrecision; text-rendering:geometricPrecision; image-rendering:optimizeQuality; fill-rule:evenodd; clip-rule:evenodd" xmlns:xlink="http://www.w3.org/1999/xlink">
<g><path style="opacity:0.473" fill="#fefffe" d="M 96.5,12.5 C 101.895,21.6124 107.562,30.6124 113.5,39.5C 111.741,40.754 110.241,40.4206 109,38.5C 103.727,29.5632 98.06,20.8965 92,12.5C 86.0303,22.4477 79.3637,31.781 72,40.5C 71.5,40.1667 71,39.8333 70.5,39.5C 77.4757,28.5354 84.809,17.8687 92.5,7.5C 93.6125,9.41917 94.9458,11.0858 96.5,12.5 Z"/></g>
<g><path style="opacity:0.725" fill="#fefffe" d="M 25.5,9.5 C 46.1667,9.5 66.8333,9.5 87.5,9.5C 82.6433,19.3704 76.6433,28.5371 69.5,37C 49.1694,37.5 28.8361,37.6666 8.5,37.5C 13.6353,27.9058 19.3019,18.5724 25.5,9.5 Z"/></g>
<g><path style="opacity:0.726" fill="#fefffe" d="M 96.5,12.5 C 96.5,11.5 96.5,10.5 96.5,9.5C 117.169,9.33338 137.836,9.50004 158.5,10C 164.833,18.8482 170.499,28.0149 175.5,37.5C 155.164,37.6666 134.831,37.5 114.5,37C 108.601,28.6769 102.601,20.5102 96.5,12.5 Z"/></g>
<g><path style="opacity:0.64" fill="#fefffe" d="M 30.5,42.5 C 37.8333,42.5 45.1667,42.5 52.5,42.5C 52.5,49.8333 52.5,57.1667 52.5,64.5C 45.1667,64.5 37.8333,64.5 30.5,64.5C 30.5,57.1667 30.5,49.8333 30.5,42.5 Z"/></g>
<g><path style="opacity:0.638" fill="#fefffe" d="M 131.5,42.5 C 138.833,42.5 146.167,42.5 153.5,42.5C 153.5,49.8333 153.5,57.1667 153.5,64.5C 146.167,64.5 138.833,64.5 131.5,64.5C 131.5,57.1667 131.5,49.8333 131.5,42.5 Z"/></g>
<g><path style="opacity:0.684" fill="#fefffe" d="M 76.5,54.5 C 86.8333,54.5 97.1667,54.5 107.5,54.5C 107.5,69.5 107.5,84.5 107.5,99.5C 97.1667,99.5 86.8333,99.5 76.5,99.5C 76.5,84.5 76.5,69.5 76.5,54.5 Z"/></g>
<g><path style="opacity:0.571" fill="#fefffe" d="M 16.5,67.5 C 25.5698,67.876 28.5698,72.2093 25.5,80.5C 20.7476,84.6296 16.2476,84.2963 12,79.5C 10.3087,74.1311 11.8087,70.1311 16.5,67.5 Z M 17.5,70.5 C 23.7577,71.4774 25.0911,74.6441 21.5,80C 15.4983,80.9931 13.3317,78.4931 15,72.5C 15.9947,71.9341 16.828,71.2674 17.5,70.5 Z"/></g>
<g><path style="opacity:0.547" fill="#fefffe" d="M 28.5,67.5 C 29.5,67.5 30.5,67.5 31.5,67.5C 31.3379,69.5273 31.5045,71.5273 32,73.5C 34.521,69.9927 37.6877,68.326 41.5,68.5C 39.8333,70.8333 37.8333,72.8333 35.5,74.5C 37.8847,76.8838 39.8847,79.5505 41.5,82.5C 40.635,83.5827 39.635,83.7494 38.5,83C 36.5479,80.9261 34.7146,78.7594 33,76.5C 31.6485,78.5938 31.1485,80.9272 31.5,83.5C 30.5,83.5 29.5,83.5 28.5,83.5C 28.5,78.1667 28.5,72.8333 28.5,67.5 Z"/></g>
<g><path style="opacity:0.562" fill="#fefffe" d="M 42.5,67.5 C 43.5,67.5 44.5,67.5 45.5,67.5C 45.5,69.5 45.5,71.5 45.5,73.5C 47.8333,73.5 50.1667,73.5 52.5,73.5C 52.5,71.5 52.5,69.5 52.5,67.5C 53.5,67.5 54.5,67.5 55.5,67.5C 55.5,72.8333 55.5,78.1667 55.5,83.5C 54.5,83.5 53.5,83.5 52.5,83.5C 52.5,81.1667 52.5,78.8333 52.5,76.5C 50.1667,76.5 47.8333,76.5 45.5,76.5C 45.5,78.8333 45.5,81.1667 45.5,83.5C 44.5,83.5 43.5,83.5 42.5,83.5C 42.5,78.1667 42.5,72.8333 42.5,67.5 Z"/></g>
<g><path style="opacity:0.563" fill="#fefffe" d="M 61.5,67.5 C 64.8621,67.0695 67.6954,68.0695 70,70.5C 70.3694,74.8629 70.8694,79.1962 71.5,83.5C 69.8762,83.6399 68.7096,82.9733 68,81.5C 62.9003,84.9066 59.0669,83.9066 56.5,78.5C 57,77.5 57.5,76.5 58,75.5C 61.1367,74.1766 64.3034,73.0099 67.5,72C 66.737,71.0565 65.737,70.5565 64.5,70.5C 62.4896,71.3621 60.4896,71.8621 58.5,72C 58.0426,71.586 57.7093,71.086 57.5,70.5C 58.9014,69.4793 60.2347,68.4793 61.5,67.5 Z M 66.5,75.5 C 67.782,76.7082 67.782,78.0416 66.5,79.5C 64.5914,80.3482 62.5914,80.6816 60.5,80.5C 60.33,79.1779 60.6634,78.0113 61.5,77C 63.3817,76.8019 65.0484,76.3019 66.5,75.5 Z"/></g>
<g><path style="opacity:0.57" fill="#fefffe" d="M 116.5,67.5 C 120.167,67.5 123.833,67.5 127.5,67.5C 127.464,73.9259 128.131,80.2592 129.5,86.5C 128.5,86.5 127.5,86.5 126.5,86.5C 126.5,85.5 126.5,84.5 126.5,83.5C 122.833,83.5 119.167,83.5 115.5,83.5C 115.5,84.5 115.5,85.5 115.5,86.5C 114.5,86.5 113.5,86.5 112.5,86.5C 114.722,80.4528 116.056,74.1195 116.5,67.5 Z M 119.5,70.5 C 121.167,70.5 122.833,70.5 124.5,70.5C 124.5,73.8333 124.5,77.1667 124.5,80.5C 122.143,80.6633 119.81,80.4966 117.5,80C 118.207,76.8388 118.874,73.6722 119.5,70.5 Z"/></g>
<g><path style="opacity:0.589" fill="#fefffe" d="M 130.5,67.5 C 134.308,67.1632 137.974,67.6632 141.5,69C 142.924,73.0452 143.424,77.2119 143,81.5C 139.078,83.3124 134.911,83.979 130.5,83.5C 130.5,78.1667 130.5,72.8333 130.5,67.5 Z M 133.5,70.5 C 135.977,70.0508 137.977,70.7175 139.5,72.5C 137.604,73.4656 135.604,73.7989 133.5,73.5C 133.5,72.5 133.5,71.5 133.5,70.5 Z M 133.5,76.5 C 135.833,76.5 138.167,76.5 140.5,76.5C 140.5,77.8333 140.5,79.1667 140.5,80.5C 138.167,80.5 135.833,80.5 133.5,80.5C 133.5,79.1667 133.5,77.8333 133.5,76.5 Z"/></g>
<g><path style="opacity:0.574" fill="#fefffe" d="M 150.5,67.5 C 156.833,67.8333 160.167,71.1667 160.5,77.5C 156.154,77.3343 151.821,77.501 147.5,78C 148.167,78.6667 148.833,79.3333 149.5,80C 152.917,80.0252 156.25,80.1918 159.5,80.5C 153.86,84.9752 149.027,84.3085 145,78.5C 143.697,73.1045 145.53,69.4379 150.5,67.5 Z M 150.5,70.5 C 153.061,70.4469 155.061,71.4469 156.5,73.5C 153.5,74.8333 150.5,74.8333 147.5,73.5C 148.34,72.265 149.34,71.265 150.5,70.5 Z"/></g>
<g><path style="opacity:0.599" fill="#fefffe" d="M 161.5,67.5 C 165.522,67.3497 169.522,67.8497 173.5,69C 177.5,73.3333 177.5,77.6667 173.5,82C 170.711,83.6636 167.877,83.8302 165,82.5C 164.506,84.1341 164.34,85.8008 164.5,87.5C 163.5,87.5 162.5,87.5 161.5,87.5C 161.5,80.8333 161.5,74.1667 161.5,67.5 Z M 166.5,70.5 C 173.341,71.0158 175.007,74.1825 171.5,80C 167.127,81.4872 164.794,79.9872 164.5,75.5C 164.724,73.5453 165.391,71.8787 166.5,70.5 Z"/></g>
<g><path style="opacity:0.574" fill="#fefffe" d="M 177.5,67.5 C 178.5,67.5 179.5,67.5 180.5,67.5C 180.335,71.1817 180.501,74.8484 181,78.5C 190.42,63.0022 193.92,64.6689 191.5,83.5C 190.5,83.5 189.5,83.5 188.5,83.5C 188.665,80.1501 188.498,76.8168 188,73.5C 185.5,76.6667 183,79.8333 180.5,83C 179.552,83.4828 178.552,83.6495 177.5,83.5C 177.5,78.1667 177.5,72.8333 177.5,67.5 Z"/></g>
<g><path style="opacity:0.268" fill="#fefffe" d="M 112.5,89.5 C 114.117,90.5893 114.95,92.256 115,94.5C 116.041,92.4148 117.541,90.7481 119.5,89.5C 120.833,92.8333 120.833,96.1667 119.5,99.5C 118.702,97.9223 118.202,96.2556 118,94.5C 116.49,96.2077 114.99,97.8744 113.5,99.5C 112.513,96.2317 112.18,92.8984 112.5,89.5 Z"/></g>
<g><path style="opacity:0.258" fill="#fefffe" d="M 122.5,90.5 C 124.936,90.317 127.103,90.9837 129,92.5C 131.594,90.195 134.427,89.8617 137.5,91.5C 137.5,94.1667 137.5,96.8333 137.5,99.5C 134.315,99.9804 131.481,99.3137 129,97.5C 126.865,99.2785 124.365,99.9452 121.5,99.5C 121.264,96.3915 121.597,93.3915 122.5,90.5 Z M 130.5,93.5 C 131.873,93.3433 133.207,93.51 134.5,94C 135.674,96.8288 134.674,97.8288 131.5,97C 130.663,95.9887 130.33,94.8221 130.5,93.5 Z"/></g>
<g><path style="opacity:0.245" fill="#fefffe" d="M 148.5,90.5 C 150.993,90.3291 152.826,91.3291 154,93.5C 156.088,89.8214 158.755,89.4881 162,92.5C 167.429,89.5841 170.096,91.2507 170,97.5C 167.333,100.167 164.667,100.167 162,97.5C 159.282,100.07 156.615,100.07 154,97.5C 151.333,100.167 148.667,100.167 146,97.5C 144.484,100.051 143.651,99.7181 143.5,96.5C 142.5,96.5 141.5,96.5 140.5,96.5C 140.719,97.675 140.386,98.675 139.5,99.5C 138.167,96.8333 138.167,94.1667 139.5,91.5C 140.386,92.325 140.719,93.325 140.5,94.5C 141.5,94.5 142.5,94.5 143.5,94.5C 143.651,91.2819 144.484,90.9485 146,93.5C 146.698,92.3094 147.531,91.3094 148.5,90.5 Z M 147.5,93.5 C 148.873,93.3433 150.207,93.51 151.5,94C 152.674,96.8288 151.674,97.8288 148.5,97C 147.663,95.9887 147.33,94.8221 147.5,93.5 Z M 163.5,93.5 C 164.873,93.3433 166.207,93.51 167.5,94C 168.674,96.8288 167.674,97.8288 164.5,97C 163.663,95.9887 163.33,94.8221 163.5,93.5 Z"/></g>
</svg>
